<?xml version="1.0" encoding="UTF-8"?>
<svg width="14px" height="10px" viewBox="0 0 14 10" version="1.1" xmlns="http://www.w3.org/2000/svg" xmlns:xlink="http://www.w3.org/1999/xlink">
    <!-- Generator: Sketch 52.4 (67378) - http://www.bohemiancoding.com/sketch -->
    <title>Group 3</title>
    <desc>Created with Sketch.</desc>
    <g id="Page-1" stroke="none" stroke-width="1" fill="none" fill-rule="evenodd">
        <g id="Group-3" fill="#429CD6" fill-rule="nonzero">
            <rect id="Rectangle" x="0" y="4" width="13.6111111" height="2" rx="1"></rect>
            <path d="M8.39220328,2.16114718 L13.3367441,2.2307886 C13.8780071,2.23841202 14.3149384,2.6753434 14.3225619,3.21660632 L14.3227588,3.23059163 C14.3302164,3.76007758 13.9070287,4.1953563 13.3775428,4.20281385 C13.3685412,4.20294063 13.3595382,4.20294063 13.3505366,4.20281385 L8.40599575,4.13317243 C7.86473283,4.12554901 7.42780145,3.68861763 7.42017803,3.14735471 L7.41998106,3.1333694 C7.41252351,2.60388345 7.83571115,2.16860473 8.36519711,2.16114718 C8.37419872,2.1610204 8.38320167,2.1610204 8.39220328,2.16114718 Z" id="Rectangle" transform="translate(10.871370, 3.181981) rotate(45.000000) translate(-10.871370, -3.181981) "></path>
            <path d="M8.39220328,5.76114718 L13.3367441,5.8307886 C13.8780071,5.83841202 14.3149384,6.2753434 14.3225619,6.81660632 L14.3227588,6.83059163 C14.3302164,7.36007758 13.9070287,7.7953563 13.3775428,7.80281385 C13.3685412,7.80294063 13.3595382,7.80294063 13.3505366,7.80281385 L8.40599575,7.73317243 C7.86473283,7.72554901 7.42780145,7.28861763 7.42017803,6.74735471 L7.41998106,6.7333694 C7.41252351,6.20388345 7.83571115,5.76860473 8.36519711,5.76114718 C8.37419872,5.7610204 8.38320167,5.7610204 8.39220328,5.76114718 Z" id="Rectangle" transform="translate(10.871370, 6.781981) scale(-1, 1) rotate(45.000000) translate(-10.871370, -6.781981) "></path>
        </g>
    </g>
</svg>