<svg height="10" viewBox="0 0 16 10" width="16" xmlns="http://www.w3.org/2000/svg"><g transform="translate(0 -1)"><rect height="2" rx="1" width="15.491803" y="5"/><path d="m9.60668563 3.05268547 5.47372877-.20344793c.5470024-.02033102 1.0069169.40662046 1.027248.95362282.0009118.02453325.0009118.0490919 0 .07362514l-.0051744.13921545c-.0194436.52312509-.4390425.94272401-.9621676.96216756l-5.47372875.20344792c-.54700236.02033102-1.00691693-.40662046-1.02724795-.95362282-.00091186-.02453324-.00091186-.04909189 0-.07362514l.00517436-.13921544c.01944355-.5231251.43904247-.94272402.96216757-.96216756z" transform="matrix(.70710678 .70710678 -.70710678 .70710678 6.463345 -7.57334)"/><path d="m9.60668563 7.16167729 5.47372877-.20344792c.5470024-.02033102 1.0069169.40662046 1.027248.95362282.0009118.02453324.0009118.04909189 0 .07362514l-.0051744.13921544c-.0194436.5231251-.4390425.94272402-.9621676.96216756l-5.47372875.20344793c-.54700236.02033102-1.00691693-.40662046-1.02724795-.95362282-.00091186-.02453325-.00091186-.0490919 0-.07362514l.00517436-.13921545c.01944355-.52312509.43904247-.94272401.96216757-.96216756z" transform="matrix(-.70710678 .70710678 .70710678 .70710678 15.378165 -6.369845)"/></g></svg>