<?xml version="1.0" encoding="UTF-8"?>
<svg width="18px" height="22px" viewBox="0 0 18 22" version="1.1" xmlns="http://www.w3.org/2000/svg" xmlns:xlink="http://www.w3.org/1999/xlink">
    <!-- Generator: Sketch 52.4 (67378) - http://www.bohemiancoding.com/sketch -->
    <title>Group 15</title>
    <desc>Created with Sketch.</desc>
    <g id="Page-1" stroke="none" stroke-width="1" fill="none" fill-rule="evenodd">
        <g id="iPhone-8-Copy-2" transform="translate(-59.000000, -53.000000)" fill-rule="nonzero">
            <g id="Group-15" transform="translate(60.000000, 54.000000)">
                <g id="Group-5" stroke="#68C6F0" stroke-linecap="square" stroke-width="2">
                    <g id="Group-4">
                        <path d="M6.61330043,19.1751373 L0.514534995,15.7885585 C0.196970207,15.6122181 4.88573281e-16,15.2775424 4.4408921e-16,14.9143024 L-2.22044605e-16,1.69776889 C-2.8967998e-16,1.14548414 0.44771525,0.697768895 1,0.697768895 C1.16963988,0.697768895 1.33649138,0.740924476 1.48485728,0.823175607 L8.09876543,4.48979592 L8.09876543,10" id="Line-4"></path>
                        <path d="M14.514535,19.1751373 L8.41576956,15.7885585 C8.09820477,15.6122181 7.90123457,15.2775424 7.90123457,14.9143024 L7.90123457,1.69776889 C7.90123457,1.14548414 8.34894982,0.697768895 8.90123457,0.697768895 C9.07087445,0.697768895 9.23772595,0.740924476 9.38609185,0.823175607 L16,4.48979592" id="Line-4" transform="translate(11.950617, 10.000000) scale(-1, 1) translate(-11.950617, -10.000000) "></path>
                    </g>
                    <path d="M1,16 L7.50386106,19.716492 C7.81129373,19.8921678 8.18870627,19.8921678 8.49613894,19.716492 L15,16" id="Line"></path>
                </g>
                <path d="M7.09998187,11 L9.1,11 C9.1,11.6 8.76625514,11.9 8.09876543,11.9 C7.43127572,11.9 7.09834787,11.6 7.09998187,11 Z" id="Rectangle" fill="#68C6F0"></path>
            </g>
        </g>
    </g>
</svg>