<svg height="34" viewBox="0 0 34 34" width="34" xmlns="http://www.w3.org/2000/svg"><g fill="none" transform="translate(2 2)"><ellipse cx="14.851485" cy="15" fill="#f5f5f6" rx="14.851485" ry="15" stroke="#dbd9d9" stroke-width="3"/><g fill="#d8d8d8"><path d="m17.5820365 5.85509355c.4053309.37022149.4337927.99893094.0635712 1.40426186-.0048435.00530288-.0097444.01055312-.0147018.01574978l-3.7988694 3.98225121 6.7368019 6.434958c.4099091.3915431.4247977 1.0412484.0332547 1.4511575-.0065903.0068995-.0132765.0137067-.0200566.0204196-.4171948.4130642-1.087679.4180607-1.5109835.0112599l-8.2390165-7.917795 5.2869534-5.36387721c.3981142-.40390669 1.0443002-.42086053 1.4630466-.03838564z" transform="matrix(0 -1 1 0 3.331144 28.387174)"/><rect height="3" rx="1.485149" width="2.970297" x="13.366337"/><rect height="3" rx="1.485149" width="2.970297" y="13.5"/><rect height="3" rx="1.485149" width="2.970297" x="27.029703" y="13.5"/><rect height="3" rx="1.485149" width="2.970297" x="13.366337" y="27"/></g></g></svg>