<svg height="20" viewBox="0 0 16 20" width="16" xmlns="http://www.w3.org/2000/svg"><g fill="none" transform="translate(.176822)"><path d="m7.43716855 9.41176471c1.43352378-.7420305 2.36417408-1.52826893 2.79195095-2.35871527.423842-.82280765-.0714774-1.88905276-.84972422-2.18318297-.89018725-.3364369-1.51227819-.06582461-1.8662728.81183689-.37434041-.95079996-1.00660424-1.20678456-1.89679148-.76795381-.737323.36347409-1.27696384 1.25926083-.8497242 2.13929989.40468497.83358038 1.29487222 1.6198188 2.67056175 2.35871527z" fill="#68c6f0"/><path d="m1.15384615 1c-.08496688 0-.15384615.06887927-.15384615.15384615v17.04201495c0 .0432978.01824507.0845913.05025697.113745.06281962.0572107.16012344.0526638.21733417-.0101558l4.63997912-5.0948791c.04515444-.0495813.09259987-.0970267.14218122-.1421812.87947467-.8009501 2.24172813-.7372934 3.04267826.1421812l4.63997926 5.0948792c.0291537.0320119.0704472.050257.113745.050257.0849668 0 .1538461-.0688793.1538461-.1538462l.0000008-17.04201509c0-.08496689-.0688793-.15384616-.1538462-.15384616l-12.69230854.00000005z" stroke="#68c6f0" stroke-width="2"/></g></svg>