<svg height="18" viewBox="0 0 12 18" width="12" xmlns="http://www.w3.org/2000/svg"><g fill="none"><path d="m1.1428571 0h9.7142858c.6311825 0 1.1428571.51167457 1.1428571 1.14285714v15.62862336c0 .243655-.1975214.4411765-.4411765.4411765-.131735 0-.2565776-.0588694-.340385-.1605082l-4.8780535-5.9159372c-.1550088-.1879894-.4330639-.2147255-.6210533-.0597167-.0217694.0179502-.0417665.0379474-.0597167.0597167l-4.87805351 5.9159372c-.15500885.1879895-.43306391.2147256-.62105336.0597167-.10163874-.0838074-.16050813-.20865-.16050813-.340385v-15.62862336c0-.63118257.51167457-1.14285714 1.1428571-1.14285714z" fill="#18477b"/><g fill="#db3738" transform="translate(3 2)"><path d="m2.95469717-.53085933h.03823279c.37655779 0 .68181819.3052604.68181819.68181818v5.64570943c0 .37655779-.3052604.68181818-.68181819.68181818h-.03823279c-.37655779 0-.68181818-.30526039-.68181818-.68181818v-5.64570943c0-.37655778.30526039-.68181818.68181818-.68181818z" transform="matrix(.70710678 .70710678 -.70710678 .70710678 2.973814 -1.231794)"/><path d="m2.95469717-.53085933h.03823279c.37655779 0 .68181819.3052604.68181819.68181818v5.64570943c0 .37655779-.3052604.68181818-.68181819.68181818h-.03823279c-.37655779 0-.68181818-.30526039-.68181818-.68181818v-5.64570943c0-.37655778.30526039-.68181818.68181818-.68181818z" transform="matrix(-.70710678 .70710678 .70710678 .70710678 2.973814 -1.231794)"/></g></g></svg>