<?xml version="1.0" encoding="UTF-8"?>
<svg width="20px" height="19px" viewBox="0 0 20 19" version="1.1" xmlns="http://www.w3.org/2000/svg" xmlns:xlink="http://www.w3.org/1999/xlink">
    <!-- Generator: Sketch 52.4 (67378) - http://www.bohemiancoding.com/sketch -->
    <title>Group 3</title>
    <desc>Created with Sketch.</desc>
    <g id="Page-1" stroke="none" stroke-width="1" fill="none" fill-rule="evenodd">
        <g id="iPhone-8-Copy-2" transform="translate(-139.000000, -53.000000)" fill-rule="nonzero">
            <g id="Group-3" transform="translate(140.000000, 54.000000)">
                <path d="M4.3850632,2.09356004 L4.59557501,2.09356004 C4.84890273,2.09356004 5.05426542,2.29892273 5.05426542,2.55225045 C5.05426542,2.57425672 5.05268175,2.59623446 5.04952669,2.61801339 C4.9947593,2.99582034 4.96739292,3.48767889 4.96739292,4.09358401 C4.96739292,4.69947963 4.99475844,5.19132565 5.04948947,5.56912207 L5.04951608,5.56911822 C5.08583545,5.81982295 4.91204178,6.05250196 4.66133705,6.08882133 C4.63955843,6.09197638 4.61758098,6.09356004 4.59557501,6.09356004 L4.43412796,6.09357885 C4.11982787,6.09357885 3.82381413,5.94581539 3.63490331,5.69462374 C3.31808537,5.27335606 3.15114171,4.72896734 3.13407234,4.06145759 C3.11662528,3.37917818 3.28214164,2.83776354 3.63062143,2.43721366 L3.63060589,2.43720014 C3.82053129,2.21889596 4.09570465,2.09356004 4.3850632,2.09356004 Z" id="Rectangle" fill="#68C6F0" transform="translate(4.093569, 4.093569) rotate(45.000000) translate(-4.093569, -4.093569) "></path>
                <path d="M15.6819805,12.1819805 L15.6819805,17.6819805 C15.6819805,17.9581229 15.9058381,18.1819805 16.1819805,18.1819805 C16.4581229,18.1819805 16.6819805,17.9581229 16.6819805,17.6819805 L16.6819805,12.1819805 L15.6819805,12.1819805 Z" id="Rectangle" stroke="#68C6F0" fill="#D8D8D8" transform="translate(16.181981, 15.181981) rotate(-45.000000) translate(-16.181981, -15.181981) "></path>
                <circle id="Oval" stroke="#68C6F0" stroke-width="2" cx="7.5" cy="7.5" r="7.5"></circle>
            </g>
        </g>
    </g>
</svg>